# xmcd
#
# Track frame offsets: 
#        150
#        9035
#        33306
#        60607
#        88308
#        103007
#        118047
#        134674
#        156739
#        181249
#        199108
#        221535
#        239787
#        253224
#        268949
#        296880
#        318391
#
# Disc length: 4397 seconds
#
# Revision: 0
# Processed by: cddbd v1.5.2PL0 Copyright (c) Steve Scherf et al.
# Submitted via: ExactAudioCopy v0.99pb1
#
DISCID=0e112b11
DTITLE=Various Artist - Showbiz Blues ...A Fine Selection Of German Blues
DYEAR=2004
DGENRE=Blues
TTITLE0=Hot'n'Nasty/Crossing The Desert
TTITLE1=Timo Gross/Trouble
TTITLE2=Second Line/Riding On The L&N
TTITLE3=Zydeco Playboys/Voodoo In Bayon
TTITLE4=Dominik Clayton/She's Mine
TTITLE5=Soulmatic/Out Of Your Time
TTITLE6=Blues Blend/Something Ain't Right
TTITLE7=Big Daddy Wilson and Doc Fozz/Crazy World
TTITLE8=Larry O Moan/I Wanna Drink A River
TTITLE9=Triplex/Steel My Kisses
TTITLE10=Top Dog Brass Band/Who's Gonna Help Brother Get Further
TTITLE11=German's Classic Blues Trio/Come On Down
TTITLE12=Groove and Snoop Quintett/Hope Your're Lucky
TTITLE13=Memo Gonzales and The Bluescasters/I Wanna Ask You Pretty Baby
TTITLE14=B.B. and The Blues Shacks/Ordinary Blues
TTITLE15=Abl Wallenstein/Decoration Blues
TTITLE16=Dr. Will/You Got Me Runnin
EXTD=
EXTT0=
EXTT1=
EXTT2=
EXTT3=
EXTT4=
EXTT5=
EXTT6=
EXTT7=
EXTT8=
EXTT9=
EXTT10=
EXTT11=
EXTT12=
EXTT13=
EXTT14=
EXTT15=
EXTT16=
PLAYORDER=
